<svg xmlns="http://www.w3.org/2000/svg" xmlns:xlink="http://www.w3.org/1999/xlink" viewBox="0,0,256,256" width="48px" height="48px" fill-rule="nonzero"><g fill="#ffffff" fill-rule="nonzero" stroke="none" stroke-width="1" stroke-linecap="butt" stroke-linejoin="miter" stroke-miterlimit="10" stroke-dasharray="" stroke-dashoffset="0" font-family="none" font-weight="none" font-size="none" text-anchor="none" style="mix-blend-mode: normal"><g transform="scale(5.33333,5.33333)"><rect x="3.06324" y="22.02682" transform="rotate(-41.299)" width="6.428" height="6.428"></rect><rect x="0.22383" y="30.55513" transform="rotate(-41.299)" width="6.428" height="6.428"></rect><rect x="-2.69762" y="38.88568" transform="rotate(-41.299)" width="6.428" height="6.428"></rect><rect x="3.58767" y="48.81902" transform="rotate(-41.299)" width="4.993" height="4.993"></rect><rect x="6.14718" y="41.32292" transform="rotate(-41.299)" width="4.861" height="4.861"></rect><rect x="8.83717" y="33.61872" transform="rotate(-41.299)" width="4.861" height="4.861"></rect><rect x="11.06804" y="26.14701" transform="rotate(-41.299)" width="4.861" height="4.861"></rect><rect x="18.17017" y="30.13055" transform="rotate(-41.299)" width="3.165" height="3.165"></rect><rect x="15.75975" y="37.44453" transform="rotate(-41.299)" width="3.165" height="3.165"></rect><rect x="13.31352" y="44.72616" transform="rotate(-41.299)" width="3.165" height="3.165"></rect><rect x="3.06324" y="22.02682" transform="rotate(-41.299)" width="6.428" height="6.428"></rect><rect x="0.22358" y="30.55579" transform="rotate(-41.299)" width="6.428" height="6.428"></rect><rect x="-2.69828" y="38.88543" transform="rotate(-41.299)" width="6.428" height="6.428"></rect><rect x="3.58767" y="48.81902" transform="rotate(-41.299)" width="4.993" height="4.993"></rect><rect x="6.14718" y="41.32292" transform="rotate(-41.299)" width="4.861" height="4.861"></rect><rect x="8.83742" y="33.61806" transform="rotate(-41.299)" width="4.861" height="4.861"></rect><rect x="11.06779" y="26.14767" transform="rotate(-41.299)" width="4.861" height="4.861"></rect><rect x="18.17017" y="30.13055" transform="rotate(-41.299)" width="3.165" height="3.165"></rect><rect x="15.75975" y="37.44453" transform="rotate(-41.299)" width="3.165" height="3.165"></rect><rect x="13.31377" y="44.7255" transform="rotate(-41.299)" width="3.165" height="3.165"></rect><path d="M32.373,35.204l-4.722,4.148l-7.542,-8.586l2.194,-1.928l-5.498,-6.258l2.134,-1.875l-5.628,-6.408l8.585,-7.543l2.719,3.095l4.836,-4.247l2.628,2.992l2.061,-1.811c-2.974,-1.757 -6.433,-2.783 -10.14,-2.783c-11.046,0 -20,8.954 -20,20c0,11.046 8.954,20 20,20c4.662,0 8.94,-1.608 12.341,-4.282z"></path></g></g></svg>